<svg id="Layer_1" xmlns="http://www.w3.org/2000/svg" width="542.6" height="452.9" viewBox="0 0 542.6 452.9"><style>.st0{fill:#ee2f4e}</style><path class="st0" d="M62.6 283.4c43.8 0 79.3-35.5 79.3-79.3s-35.5-79.3-79.3-79.3v158.6zm420.8 0c-43.8 0-79.3-35.5-79.3-79.3s35.5-79.3 79.3-79.3v158.6zM62.6 57.9V0h57.8L273 152.5 425.5 0h57.9v57.9L273 268.3z"/><path d="M9.2 347.1H39l22.2 67 21.9-67h29.8l9.1 105.8H94.6L91.1 396l-18.3 56.9H49.3L31 396l-3.4 56.9H0zM153.4 415c-8.9 0-16.1-7.2-16.1-16.1s7.2-16.1 16.1-16.1c8.9 0 16.1 7.2 16.1 16.1s-7.2 16.1-16.1 16.1m69.6 37.9c-24 0-38.2-15.3-38.2-15.3l14-20.3.7.7c.1.1 11.4 10.3 23.8 10.3 2.3 0 9.8-.5 9.8-7.2 0-4.1-6.7-6.9-14.5-10.1-13.2-5.5-31.3-13-31.3-32.9 0-18.6 15.5-32 36.9-32 22 0 33.8 12.2 33.8 12.2l-11.3 21.9-.8-.7c-.1-.1-10.2-8.8-21.9-8.8-5 0-9.9 2.2-9.9 7.1 0 4.4 6.8 7 14.7 10.2 13.1 5.2 31.1 12.2 31.1 32.5-.1 15.6-11.6 32.4-36.9 32.4m94.8 0c-25.9 0-43.3-16-43.3-39.8v-64.8H301v64.8c0 9.8 6.1 15.4 16.7 15.4s16.7-5.6 16.7-15.4v-64.8h26.5v64.8c-.1 23.8-17.4 39.8-43.1 39.8m99.3-58c7.8 0 12.2-4.3 12.2-11.8 0-7.3-2.4-11.5-14.7-11.5H407v23.3h10.1zm18.5 58l-18.3-34.7H407v34.7h-26.9V348.3h36.7c10.2 0 15.5.7 20.3 2.5 12.4 4.8 19.5 16 19.5 30.7 0 12.3-5.9 23.3-15.1 28.4.5.7 1.8 2.6 3.5 5.7l20.7 37.3h-30.1zm42.6 0V348.3h64.4v23.3h-37.5v17h37.5v23.3h-37.5v17.7h37.5v23.3z"/></svg>